<svg width="24" height="24" viewBox="0 0 24 24" fill="none" xmlns="http://www.w3.org/2000/svg">
<path d="M6.735 12.322C6.55446 12.13 6.30541 12.017 6.04201 12.0076C5.77861 11.9983 5.52217 12.0933 5.32844 12.272C5.13471 12.4507 5.01937 12.6986 5.00749 12.9619C4.99561 13.2252 5.08815 13.4826 5.265 13.678L8.877 17.597C9.414 18.123 10.214 18.123 10.711 17.627L11.075 17.268C12.3895 15.9752 13.7025 14.6809 15.014 13.385L15.054 13.345C16.2797 12.1371 17.499 10.9227 18.712 9.702C18.8933 9.5122 18.9927 9.25873 18.9887 8.9963C18.9848 8.73386 18.8778 8.48349 18.6909 8.29922C18.504 8.11494 18.2522 8.01153 17.9897 8.01131C17.7273 8.01108 17.4752 8.11405 17.288 8.298C16.0807 9.51234 14.8673 10.7207 13.648 11.923L13.608 11.963C12.3513 13.2053 11.0929 14.446 9.833 15.685L6.735 12.322Z" fill="#0747A6"/>
</svg>
