<svg width="107" height="107" viewBox="0 0 107 107" fill="none" xmlns="http://www.w3.org/2000/svg">
<path d="M53.5 96.1941C64.8159 96.1941 75.6684 91.6989 83.6699 83.6973C91.6715 75.6958 96.1667 64.8433 96.1667 53.5274C96.1667 42.2115 91.6715 31.3591 83.6699 23.3575C75.6684 15.356 64.8159 10.8608 53.5 10.8608C42.1841 10.8608 31.3317 15.356 23.3301 23.3575C15.3286 31.3591 10.8334 42.2115 10.8334 53.5274C10.8334 64.8433 15.3286 75.6958 23.3301 83.6973C31.3317 91.6989 42.1841 96.1941 53.5 96.1941ZM53.5 106.861C24.044 106.861 0.166687 82.9834 0.166687 53.5274C0.166687 24.0714 24.044 0.194092 53.5 0.194092C82.956 0.194092 106.833 24.0714 106.833 53.5274C106.833 82.9834 82.956 106.861 53.5 106.861Z" fill="#36B27E"/>
<path fill-rule="evenodd" clip-rule="evenodd" d="M41.2707 49.7568C40.7787 49.2474 40.1902 48.8411 39.5395 48.5615C38.8888 48.282 38.189 48.1349 37.4808 48.1288C36.7727 48.1226 36.0704 48.2575 35.4149 48.5257C34.7595 48.7939 34.164 49.1899 33.6632 49.6907C33.1625 50.1914 32.7665 50.7869 32.4983 51.4423C32.2301 52.0978 32.0952 52.8001 32.1014 53.5082C32.1075 54.2164 32.2546 54.9162 32.5341 55.5669C32.8137 56.2176 33.22 56.8061 33.7294 57.2981L44.396 67.9648C45.3962 68.9646 46.7525 69.5263 48.1667 69.5263C49.5809 69.5263 50.9372 68.9646 51.9374 67.9648L73.2707 46.6314C73.7801 46.1394 74.1864 45.5509 74.4659 44.9002C74.7454 44.2496 74.8925 43.5497 74.8987 42.8416C74.9048 42.1334 74.7699 41.4311 74.5017 40.7757C74.2336 40.1202 73.8376 39.5247 73.3368 39.024C72.836 38.5232 72.2406 38.1272 71.5851 37.859C70.9297 37.5909 70.2274 37.4559 69.5192 37.4621C68.8111 37.4682 68.1112 37.6154 67.4605 37.8949C66.8098 38.1744 66.2213 38.5807 65.7294 39.0901L48.1667 56.6528L41.2707 49.7568Z" fill="#36B27E"/>
</svg>
